<?xml version="1.0" ?>
<svg xmlns:svg="http://www.w3.org/2000/svg" xmlns="http://www.w3.org/2000/svg" version="1.0" width="105mm" height="25mm" viewBox="0 0 105 25" style="fill-rule:evenodd">
<g transform="translate(-0.6151,0)" style="fill:#000000">
<path d="M 93.333,6.9459 L 87.4656,18.5791 L 86.3988,18.5791 L 83.808,6.9459 L 85.9416,6.9459 L 87.491,14.1891 L 91.1486,6.9459 L 93.333,6.9459 L 93.333,6.9459 z M 5.2306,3.3729 C 5.2306,3.0258 5.3534,2.7295 5.5989,2.4839 C 5.8402,2.2426 6.1323,2.1199 6.471,2.1199 C 6.8097,2.1199 7.1018,2.2426 7.3473,2.4839 C 7.5886,2.7295 7.7114,3.0258 7.7114,3.3729 C 7.7114,3.7116 7.5886,4.0037 7.3473,4.245 C 7.1018,4.4905 6.8097,4.6133 6.471,4.6133 C 6.1323,4.6133 5.8402,4.4905 5.5989,4.245 C 5.3534,4.0037 5.2306,3.7116 5.2306,3.3729 L 5.2306,3.3729 z M 78.4288,13.884 C 79.7172,13.884 80.7681,14.9349 80.7681,16.2233 C 80.7681,17.5118 79.7172,18.5627 78.4288,18.5627 C 77.1403,18.5627 76.0894,17.5118 76.0894,16.2233 C 76.0894,14.9349 77.1403,13.884 78.4288,13.884 L 78.4288,13.884 z M 80.3282,12.9487 L 77.6502,12.9487 L 78.082,5.2187 C 78.1667,3.5423 78.3878,2.3871 78.7467,1.7558 C 79.1074,1.1214 79.9587,0.8033 80.6614,0.8033 C 81.1652,0.8033 81.8874,0.9717 82.1782,1.3028 C 82.4671,1.6318 82.61,2.0818 82.61,2.6533 C 82.61,3.3983 82.4566,4.3806 82.1528,5.6039 L 80.3282,12.9487 L 80.3282,12.9487 z M 7.1526,6.9459 L 5.5524,18.3547 L 3.3976,18.3547 L 4.9978,6.9459 L 7.1526,6.9459 L 7.1526,6.9459 z M 11.9278,6.9459 L 11.6314,8.9271 C 12.9649,7.492 14.29,6.7723 15.615,6.7723 C 17.084,6.7723 17.9476,7.6274 18.2058,9.3377 C 19.5943,7.6274 21.0167,6.7723 22.473,6.7723 C 23.2816,6.7723 23.9335,7.0475 24.4246,7.602 C 24.9156,8.1566 25.1612,8.9313 25.1612,9.9346 C 25.1612,10.2479 25.14,10.5908 25.0892,10.9633 L 24.0478,18.3547 L 21.8888,18.3547 L 22.9556,10.8617 C 22.9979,10.6077 23.0191,10.3664 23.0191,10.1463 C 23.0191,9.0287 22.6085,8.4699 21.7914,8.4699 C 21.584,8.4699 21.3554,8.5122 21.1056,8.6011 C 20.8601,8.6858 20.5807,8.8297 20.2759,9.0287 C 19.9711,9.2276 19.5562,9.5875 19.0313,10.1082 C 18.5064,10.6289 18.2312,10.9633 18.2058,11.1115 L 17.1644,18.3547 L 15.0054,18.3547 L 16.0214,11.1369 C 16.0807,10.7813 16.1103,10.4638 16.1103,10.1801 C 16.1103,9.0414 15.6573,8.4699 14.7556,8.4699 C 14.1884,8.4699 13.4772,8.8678 12.6305,9.6679 C 11.7838,10.4638 11.3478,10.9464 11.3224,11.1115 L 10.3064,18.3547 L 8.1474,18.3547 L 9.773,6.9459 L 11.9278,6.9459 L 11.9278,6.9459 z M 31.6932,4.0545 L 31.2826,6.9459 C 31.8625,6.713 32.506,6.5987 33.2172,6.5987 C 34.5592,6.5987 35.681,7.1025 36.5869,8.11 C 37.4929,9.1176 37.9416,10.3833 37.9416,11.9073 C 37.9416,13.715 37.3278,15.3025 36.1001,16.6698 C 34.8724,18.033 33.1918,18.7145 31.0624,18.7145 L 29.6358,18.7145 L 28.878,24.1967 L 26.719,24.1967 L 28.7426,9.7737 C 28.2769,10.1039 27.8578,10.5315 27.481,11.0607 C 27.1043,11.5898 26.8926,11.8565 26.8418,11.8565 C 26.7783,11.8565 26.7444,11.8015 26.7444,11.6957 C 26.7444,11.3147 26.9603,10.7686 27.3964,10.0531 C 27.8282,9.3377 28.3489,8.7366 28.95,8.2455 L 29.5342,4.0545 L 31.6932,4.0545 L 31.6932,4.0545 z M 31.0624,8.5461 L 29.894,16.8773 L 30.9354,16.8773 C 32.4002,16.8773 33.5643,16.3862 34.4322,15.3956 C 35.3,14.4092 35.736,13.2451 35.736,11.9073 C 35.736,10.7474 35.4312,9.8457 34.8174,9.1938 C 34.2078,8.5461 33.4289,8.2201 32.4848,8.2201 C 31.9811,8.2201 31.5069,8.3302 31.0624,8.5461 L 31.0624,8.5461 z M 43.5296,6.9459 L 43.1952,9.1133 L 43.246,9.1641 C 43.9233,8.1989 44.4609,7.5555 44.8589,7.2422 C 45.2568,6.9289 45.7267,6.7723 46.2728,6.7723 C 46.6115,6.7723 46.9247,6.8273 47.2126,6.9459 L 47.2126,9.3885 C 46.7596,9.1303 46.3194,9.0033 45.8876,9.0033 C 45.4642,9.0033 45.0917,9.1091 44.7573,9.3208 C 44.4271,9.5324 44.0291,9.9812 43.555,10.6712 C 43.0851,11.3612 42.8396,11.7803 42.8226,11.9285 L 41.9294,18.3547 L 39.7746,18.3547 L 41.3748,6.9459 L 43.5296,6.9459 L 43.5296,6.9459 z M 56.3904,15.3787 L 56.0814,17.4361 C 54.9215,18.287 53.6557,18.7145 52.2714,18.7145 C 50.8363,18.7145 49.6806,18.2108 48.8085,17.2075 C 47.9365,16.2042 47.5004,14.8664 47.5004,13.1943 C 47.5004,11.3358 48.0211,9.7695 49.0668,8.4995 C 50.1124,7.2337 51.3909,6.5987 52.9064,6.5987 C 54.0621,6.5987 55.0273,7.0432 55.7935,7.9322 C 56.564,8.8212 56.9492,9.9685 56.9492,11.3739 C 56.9492,11.7211 56.9238,12.0767 56.873,12.4407 L 49.7568,12.4407 C 49.6891,12.8175 49.6552,13.1816 49.6552,13.5287 C 49.6552,14.5786 49.9431,15.4083 50.5188,16.0179 C 51.0945,16.6233 51.8142,16.9281 52.682,16.9281 C 53.7404,16.9281 54.9765,16.4116 56.3904,15.3787 L 56.3904,15.3787 z M 50.0912,10.9379 L 54.8664,10.9379 C 54.8664,10.1463 54.6844,9.5197 54.3246,9.0583 C 53.9647,8.6011 53.461,8.3725 52.8048,8.3725 C 51.5644,8.3725 50.6627,9.2276 50.0912,10.9379 z M 65.8646,7.7883 L 65.8646,10.0447 C 64.5523,9.0456 63.4051,8.5461 62.4314,8.5461 C 61.9911,8.5461 61.6271,8.6604 61.3265,8.8974 C 61.0302,9.1345 60.882,9.4181 60.882,9.7483 C 60.882,9.9642 60.9751,10.1928 61.1614,10.4341 C 61.3477,10.6797 61.9319,11.1326 62.9225,11.793 C 63.9088,12.4534 64.5735,13.063 64.9164,13.6176 C 65.2593,14.1722 65.4328,14.7352 65.4328,15.3025 C 65.4328,16.3058 65.0984,17.1228 64.4338,17.7578 C 63.7691,18.397 62.9225,18.7145 61.898,18.7145 C 60.6322,18.7145 59.3157,18.215 57.9398,17.2117 L 58.3124,15.1289 C 59.7348,16.2634 60.9074,16.8307 61.8218,16.8307 C 62.2536,16.8307 62.605,16.7079 62.8844,16.4709 C 63.1595,16.2296 63.2992,15.929 63.2992,15.5649 C 63.2992,15.2898 63.1976,15.0104 62.9944,14.7267 C 62.7912,14.4431 62.2028,13.9605 61.2291,13.2832 C 60.2512,12.6058 59.6078,12.0005 59.2945,11.4713 C 58.9812,10.9421 58.8204,10.4087 58.8204,9.8711 C 58.8204,8.889 59.1506,8.0973 59.8025,7.4962 C 60.4544,6.8951 61.3223,6.5987 62.406,6.5987 C 63.549,6.5987 64.7005,6.9924 65.8646,7.7883 L 65.8646,7.7883 z M 74.8562,7.7883 L 74.8562,10.0447 C 73.5439,9.0456 72.3967,8.5461 71.423,8.5461 C 70.9827,8.5461 70.6187,8.6604 70.3181,8.8974 C 70.0218,9.1345 69.8736,9.4181 69.8736,9.7483 C 69.8736,9.9642 69.9667,10.1928 70.153,10.4341 C 70.3393,10.6797 70.9235,11.1326 71.9141,11.793 C 72.9004,12.4534 73.5651,13.063 73.908,13.6176 C 74.2509,14.1722 74.4244,14.7352 74.4244,15.3025 C 74.4244,16.3058 74.09,17.1228 73.4254,17.7578 C 72.7607,18.397 71.9141,18.7145 70.8896,18.7145 C 69.6238,18.7145 68.3073,18.215 66.9314,17.2117 L 67.304,15.1289 C 68.7264,16.2634 69.899,16.8307 70.8134,16.8307 C 71.2452,16.8307 71.5966,16.7079 71.876,16.4709 C 72.1511,16.2296 72.2908,15.929 72.2908,15.5649 C 72.2908,15.2898 72.1892,15.0104 71.986,14.7267 C 71.7828,14.4431 71.1944,13.9605 70.2207,13.2832 C 69.2428,12.6058 68.5994,12.0005 68.2861,11.4713 C 67.9728,10.9421 67.812,10.4087 67.812,9.8711 C 67.812,8.889 68.1422,8.0973 68.7941,7.4962 C 69.446,6.8951 70.3139,6.5987 71.3976,6.5987 C 72.5406,6.5987 73.6921,6.9924 74.8562,7.7883 L 74.8562,7.7883 z M 102.2738,15.3787 L 101.9648,17.4361 C 100.8049,18.287 99.5391,18.7145 98.1548,18.7145 C 96.7197,18.7145 95.564,18.2108 94.6919,17.2075 C 93.8199,16.2042 93.3838,14.8664 93.3838,13.1943 C 93.3838,11.3358 93.9045,9.7695 94.9502,8.4995 C 95.9958,7.2337 97.2743,6.5987 98.7898,6.5987 C 99.9455,6.5987 100.9107,7.0432 101.6769,7.9322 C 102.4474,8.8212 102.8326,9.9685 102.8326,11.3739 C 102.8326,11.7211 102.8072,12.0767 102.7564,12.4407 L 95.6402,12.4407 C 95.5725,12.8175 95.5386,13.1816 95.5386,13.5287 C 95.5386,14.5786 95.8265,15.4083 96.4022,16.0179 C 96.9779,16.6233 97.6976,16.9281 98.5654,16.9281 C 99.6238,16.9281 100.8599,16.4116 102.2738,15.3787 L 102.2738,15.3787 z M 95.9746,10.9379 L 100.7498,10.9379 C 100.7498,10.1463 100.5678,9.5197 100.208,9.0583 C 99.8481,8.6011 99.3444,8.3725 98.6882,8.3725 C 97.4478,8.3725 96.5461,9.2276 95.9746,10.9379 z" />
</g></svg>
